<mxfile host="app.diagrams.net" agent="Mozilla/5.0 (Windows NT 10.0; Win64; x64) AppleWebKit/537.36 (KHTML, like Gecko) Chrome/131.0.0.0 Safari/537.36" version="25.0.3">
  <diagram name="Page-1" id="hvhr94oW_1CdkNUspbrg">
    <mxGraphModel dx="1313" dy="696" grid="1" gridSize="10" guides="1" tooltips="1" connect="1" arrows="1" fold="1" page="1" pageScale="1" pageWidth="850" pageHeight="1100" math="0" shadow="0">
      <root>
        <mxCell id="0" />
        <mxCell id="1" parent="0" />
        <mxCell id="osll9vNfczf3lXYmdbSo-14" style="edgeStyle=orthogonalEdgeStyle;rounded=0;orthogonalLoop=1;jettySize=auto;html=1;exitX=0.5;exitY=1;exitDx=0;exitDy=0;" edge="1" parent="1" source="osll9vNfczf3lXYmdbSo-1" target="osll9vNfczf3lXYmdbSo-9">
          <mxGeometry relative="1" as="geometry" />
        </mxCell>
        <mxCell id="osll9vNfczf3lXYmdbSo-15" style="edgeStyle=orthogonalEdgeStyle;rounded=0;orthogonalLoop=1;jettySize=auto;html=1;entryX=0.5;entryY=0;entryDx=0;entryDy=0;" edge="1" parent="1" source="osll9vNfczf3lXYmdbSo-1" target="osll9vNfczf3lXYmdbSo-10">
          <mxGeometry relative="1" as="geometry" />
        </mxCell>
        <mxCell id="osll9vNfczf3lXYmdbSo-16" style="edgeStyle=orthogonalEdgeStyle;rounded=0;orthogonalLoop=1;jettySize=auto;html=1;entryX=0.5;entryY=0;entryDx=0;entryDy=0;" edge="1" parent="1" source="osll9vNfczf3lXYmdbSo-1" target="osll9vNfczf3lXYmdbSo-8">
          <mxGeometry relative="1" as="geometry" />
        </mxCell>
        <mxCell id="osll9vNfczf3lXYmdbSo-17" style="edgeStyle=orthogonalEdgeStyle;rounded=0;orthogonalLoop=1;jettySize=auto;html=1;" edge="1" parent="1" source="osll9vNfczf3lXYmdbSo-1" target="osll9vNfczf3lXYmdbSo-7">
          <mxGeometry relative="1" as="geometry" />
        </mxCell>
        <mxCell id="osll9vNfczf3lXYmdbSo-18" style="edgeStyle=orthogonalEdgeStyle;rounded=0;orthogonalLoop=1;jettySize=auto;html=1;" edge="1" parent="1" source="osll9vNfczf3lXYmdbSo-1" target="osll9vNfczf3lXYmdbSo-2">
          <mxGeometry relative="1" as="geometry" />
        </mxCell>
        <mxCell id="osll9vNfczf3lXYmdbSo-19" style="edgeStyle=orthogonalEdgeStyle;rounded=0;orthogonalLoop=1;jettySize=auto;html=1;entryX=0.5;entryY=0;entryDx=0;entryDy=0;" edge="1" parent="1" source="osll9vNfczf3lXYmdbSo-1" target="osll9vNfczf3lXYmdbSo-11">
          <mxGeometry relative="1" as="geometry" />
        </mxCell>
        <mxCell id="osll9vNfczf3lXYmdbSo-20" style="edgeStyle=orthogonalEdgeStyle;rounded=0;orthogonalLoop=1;jettySize=auto;html=1;entryX=0.5;entryY=0;entryDx=0;entryDy=0;" edge="1" parent="1" source="osll9vNfczf3lXYmdbSo-1" target="osll9vNfczf3lXYmdbSo-12">
          <mxGeometry relative="1" as="geometry" />
        </mxCell>
        <mxCell id="osll9vNfczf3lXYmdbSo-21" style="edgeStyle=orthogonalEdgeStyle;rounded=0;orthogonalLoop=1;jettySize=auto;html=1;entryX=0.5;entryY=0;entryDx=0;entryDy=0;" edge="1" parent="1" source="osll9vNfczf3lXYmdbSo-1" target="osll9vNfczf3lXYmdbSo-13">
          <mxGeometry relative="1" as="geometry" />
        </mxCell>
        <mxCell id="osll9vNfczf3lXYmdbSo-1" value="&lt;font color=&quot;#ffffff&quot; style=&quot;font-size: 16px;&quot;&gt;&lt;b&gt;API&lt;/b&gt;&lt;/font&gt;" style="rounded=1;whiteSpace=wrap;html=1;fillColor=#3399FF;" vertex="1" parent="1">
          <mxGeometry x="80" y="200" width="1040" height="40" as="geometry" />
        </mxCell>
        <mxCell id="osll9vNfczf3lXYmdbSo-25" style="rounded=0;orthogonalLoop=1;jettySize=auto;html=1;entryX=0.5;entryY=0;entryDx=0;entryDy=0;dashed=1;endArrow=classicThin;endFill=1;edgeStyle=orthogonalEdgeStyle;" edge="1" parent="1" source="osll9vNfczf3lXYmdbSo-2" target="osll9vNfczf3lXYmdbSo-22">
          <mxGeometry relative="1" as="geometry" />
        </mxCell>
        <mxCell id="osll9vNfczf3lXYmdbSo-2" value="&lt;b&gt;&lt;font color=&quot;#ffffff&quot;&gt;IDENTITY&lt;/font&gt;&lt;/b&gt;" style="rounded=1;whiteSpace=wrap;html=1;fillColor=#6a00ff;strokeColor=#3700CC;fontColor=#ffffff;" vertex="1" parent="1">
          <mxGeometry x="80" y="290" width="120" height="40" as="geometry" />
        </mxCell>
        <mxCell id="osll9vNfczf3lXYmdbSo-7" value="&lt;b&gt;ACCOUNTS&lt;/b&gt;" style="rounded=1;whiteSpace=wrap;html=1;fillColor=#6a00ff;strokeColor=#3700CC;fontColor=#ffffff;" vertex="1" parent="1">
          <mxGeometry x="210" y="290" width="120" height="40" as="geometry" />
        </mxCell>
        <mxCell id="osll9vNfczf3lXYmdbSo-8" value="&lt;b&gt;DISHES&lt;/b&gt;" style="rounded=1;whiteSpace=wrap;html=1;fillColor=#6a00ff;strokeColor=#3700CC;fontColor=#ffffff;" vertex="1" parent="1">
          <mxGeometry x="340" y="290" width="120" height="40" as="geometry" />
        </mxCell>
        <mxCell id="osll9vNfczf3lXYmdbSo-9" value="&lt;b&gt;DISHES&lt;/b&gt;" style="rounded=1;whiteSpace=wrap;html=1;fillColor=#6a00ff;strokeColor=#3700CC;fontColor=#ffffff;" vertex="1" parent="1">
          <mxGeometry x="480" y="290" width="120" height="40" as="geometry" />
        </mxCell>
        <mxCell id="osll9vNfczf3lXYmdbSo-10" value="&lt;b&gt;GUESTS&lt;/b&gt;" style="rounded=1;whiteSpace=wrap;html=1;fillColor=#6a00ff;strokeColor=#3700CC;fontColor=#ffffff;" vertex="1" parent="1">
          <mxGeometry x="610" y="290" width="120" height="40" as="geometry" />
        </mxCell>
        <mxCell id="osll9vNfczf3lXYmdbSo-11" value="&lt;b&gt;MEDIA&lt;/b&gt;" style="rounded=1;whiteSpace=wrap;html=1;fillColor=#6a00ff;strokeColor=#3700CC;fontColor=#ffffff;" vertex="1" parent="1">
          <mxGeometry x="740" y="290" width="120" height="40" as="geometry" />
        </mxCell>
        <mxCell id="osll9vNfczf3lXYmdbSo-12" value="&lt;b&gt;ORDERS&lt;/b&gt;" style="rounded=1;whiteSpace=wrap;html=1;fillColor=#6a00ff;strokeColor=#3700CC;fontColor=#ffffff;" vertex="1" parent="1">
          <mxGeometry x="870" y="290" width="120" height="40" as="geometry" />
        </mxCell>
        <mxCell id="osll9vNfczf3lXYmdbSo-13" value="&lt;b&gt;TABLES&lt;/b&gt;" style="rounded=1;whiteSpace=wrap;html=1;fillColor=#6a00ff;strokeColor=#3700CC;fontColor=#ffffff;" vertex="1" parent="1">
          <mxGeometry x="1000" y="290" width="120" height="40" as="geometry" />
        </mxCell>
        <mxCell id="osll9vNfczf3lXYmdbSo-22" value="&lt;b&gt;DBCONTEXT&lt;/b&gt;" style="rounded=1;whiteSpace=wrap;html=1;fillColor=#6a00ff;fontColor=#ffffff;strokeColor=#3700CC;" vertex="1" parent="1">
          <mxGeometry x="80" y="370" width="90" height="30" as="geometry" />
        </mxCell>
        <mxCell id="osll9vNfczf3lXYmdbSo-26" style="rounded=0;orthogonalLoop=1;jettySize=auto;html=1;entryX=0.5;entryY=0;entryDx=0;entryDy=0;dashed=1;endArrow=classicThin;endFill=1;edgeStyle=orthogonalEdgeStyle;" edge="1" target="osll9vNfczf3lXYmdbSo-27" parent="1">
          <mxGeometry relative="1" as="geometry">
            <mxPoint x="270" y="330" as="sourcePoint" />
          </mxGeometry>
        </mxCell>
        <mxCell id="osll9vNfczf3lXYmdbSo-27" value="&lt;b&gt;DBCONTEXT&lt;/b&gt;" style="rounded=1;whiteSpace=wrap;html=1;fillColor=#6a00ff;fontColor=#ffffff;strokeColor=#3700CC;" vertex="1" parent="1">
          <mxGeometry x="210" y="370" width="90" height="30" as="geometry" />
        </mxCell>
        <mxCell id="osll9vNfczf3lXYmdbSo-28" style="rounded=0;orthogonalLoop=1;jettySize=auto;html=1;entryX=0.5;entryY=0;entryDx=0;entryDy=0;dashed=1;endArrow=classicThin;endFill=1;edgeStyle=orthogonalEdgeStyle;" edge="1" target="osll9vNfczf3lXYmdbSo-29" parent="1">
          <mxGeometry relative="1" as="geometry">
            <mxPoint x="400" y="330" as="sourcePoint" />
          </mxGeometry>
        </mxCell>
        <mxCell id="osll9vNfczf3lXYmdbSo-29" value="&lt;b&gt;DBCONTEXT&lt;/b&gt;" style="rounded=1;whiteSpace=wrap;html=1;fillColor=#6a00ff;fontColor=#ffffff;strokeColor=#3700CC;" vertex="1" parent="1">
          <mxGeometry x="340" y="370" width="90" height="30" as="geometry" />
        </mxCell>
        <mxCell id="osll9vNfczf3lXYmdbSo-30" style="rounded=0;orthogonalLoop=1;jettySize=auto;html=1;entryX=0.5;entryY=0;entryDx=0;entryDy=0;dashed=1;endArrow=classicThin;endFill=1;edgeStyle=orthogonalEdgeStyle;" edge="1" target="osll9vNfczf3lXYmdbSo-31" parent="1">
          <mxGeometry relative="1" as="geometry">
            <mxPoint x="540" y="330" as="sourcePoint" />
          </mxGeometry>
        </mxCell>
        <mxCell id="osll9vNfczf3lXYmdbSo-31" value="&lt;b&gt;DBCONTEXT&lt;/b&gt;" style="rounded=1;whiteSpace=wrap;html=1;fillColor=#6a00ff;fontColor=#ffffff;strokeColor=#3700CC;" vertex="1" parent="1">
          <mxGeometry x="480" y="370" width="90" height="30" as="geometry" />
        </mxCell>
        <mxCell id="osll9vNfczf3lXYmdbSo-32" style="rounded=0;orthogonalLoop=1;jettySize=auto;html=1;entryX=0.5;entryY=0;entryDx=0;entryDy=0;dashed=1;endArrow=classicThin;endFill=1;edgeStyle=orthogonalEdgeStyle;" edge="1" target="osll9vNfczf3lXYmdbSo-33" parent="1">
          <mxGeometry relative="1" as="geometry">
            <mxPoint x="670" y="330" as="sourcePoint" />
          </mxGeometry>
        </mxCell>
        <mxCell id="osll9vNfczf3lXYmdbSo-33" value="&lt;b&gt;DBCONTEXT&lt;/b&gt;" style="rounded=1;whiteSpace=wrap;html=1;fillColor=#6a00ff;fontColor=#ffffff;strokeColor=#3700CC;" vertex="1" parent="1">
          <mxGeometry x="610" y="370" width="90" height="30" as="geometry" />
        </mxCell>
        <mxCell id="osll9vNfczf3lXYmdbSo-34" style="rounded=0;orthogonalLoop=1;jettySize=auto;html=1;entryX=0.5;entryY=0;entryDx=0;entryDy=0;dashed=1;endArrow=classicThin;endFill=1;edgeStyle=orthogonalEdgeStyle;" edge="1" target="osll9vNfczf3lXYmdbSo-35" parent="1">
          <mxGeometry relative="1" as="geometry">
            <mxPoint x="810" y="330" as="sourcePoint" />
          </mxGeometry>
        </mxCell>
        <mxCell id="osll9vNfczf3lXYmdbSo-35" value="&lt;b&gt;DBCONTEXT&lt;/b&gt;" style="rounded=1;whiteSpace=wrap;html=1;fillColor=#6a00ff;fontColor=#ffffff;strokeColor=#3700CC;" vertex="1" parent="1">
          <mxGeometry x="740" y="370" width="90" height="30" as="geometry" />
        </mxCell>
        <mxCell id="osll9vNfczf3lXYmdbSo-36" style="rounded=0;orthogonalLoop=1;jettySize=auto;html=1;entryX=0.5;entryY=0;entryDx=0;entryDy=0;dashed=1;endArrow=classicThin;endFill=1;edgeStyle=orthogonalEdgeStyle;" edge="1" target="osll9vNfczf3lXYmdbSo-37" parent="1">
          <mxGeometry relative="1" as="geometry">
            <mxPoint x="930" y="330" as="sourcePoint" />
          </mxGeometry>
        </mxCell>
        <mxCell id="osll9vNfczf3lXYmdbSo-37" value="&lt;b&gt;DBCONTEXT&lt;/b&gt;" style="rounded=1;whiteSpace=wrap;html=1;fillColor=#6a00ff;fontColor=#ffffff;strokeColor=#3700CC;" vertex="1" parent="1">
          <mxGeometry x="870" y="370" width="90" height="30" as="geometry" />
        </mxCell>
        <mxCell id="osll9vNfczf3lXYmdbSo-38" style="rounded=0;orthogonalLoop=1;jettySize=auto;html=1;entryX=0.5;entryY=0;entryDx=0;entryDy=0;dashed=1;endArrow=classicThin;endFill=1;edgeStyle=orthogonalEdgeStyle;" edge="1" target="osll9vNfczf3lXYmdbSo-39" parent="1">
          <mxGeometry relative="1" as="geometry">
            <mxPoint x="1060" y="330" as="sourcePoint" />
          </mxGeometry>
        </mxCell>
        <mxCell id="osll9vNfczf3lXYmdbSo-39" value="&lt;b&gt;DBCONTEXT&lt;/b&gt;" style="rounded=1;whiteSpace=wrap;html=1;fillColor=#6a00ff;fontColor=#ffffff;strokeColor=#3700CC;" vertex="1" parent="1">
          <mxGeometry x="1000" y="370" width="90" height="30" as="geometry" />
        </mxCell>
        <mxCell id="osll9vNfczf3lXYmdbSo-40" value="&lt;font color=&quot;#ffffff&quot; style=&quot;font-size: 16px;&quot;&gt;&lt;b&gt;DATABASE ABSTRACTION - ENTITY FRAMEWORK CORE&lt;/b&gt;&lt;/font&gt;" style="rounded=1;whiteSpace=wrap;html=1;fillColor=#3399FF;" vertex="1" parent="1">
          <mxGeometry x="80" y="520" width="1040" height="40" as="geometry" />
        </mxCell>
        <mxCell id="osll9vNfczf3lXYmdbSo-47" style="rounded=0;orthogonalLoop=1;jettySize=auto;html=1;entryX=0.098;entryY=0.025;entryDx=0;entryDy=0;entryPerimeter=0;" edge="1" parent="1" target="osll9vNfczf3lXYmdbSo-40">
          <mxGeometry relative="1" as="geometry">
            <mxPoint x="180.7788235294117" y="330" as="sourcePoint" />
            <mxPoint x="180" y="510" as="targetPoint" />
          </mxGeometry>
        </mxCell>
        <mxCell id="osll9vNfczf3lXYmdbSo-53" style="rounded=0;orthogonalLoop=1;jettySize=auto;html=1;entryX=0.098;entryY=0.025;entryDx=0;entryDy=0;entryPerimeter=0;" edge="1" parent="1">
          <mxGeometry relative="1" as="geometry">
            <mxPoint x="309.9988235294117" y="329" as="sourcePoint" />
            <mxPoint x="311.22" y="520" as="targetPoint" />
          </mxGeometry>
        </mxCell>
        <mxCell id="osll9vNfczf3lXYmdbSo-55" style="rounded=0;orthogonalLoop=1;jettySize=auto;html=1;entryX=0.098;entryY=0.025;entryDx=0;entryDy=0;entryPerimeter=0;" edge="1" parent="1">
          <mxGeometry relative="1" as="geometry">
            <mxPoint x="439.9988235294117" y="330" as="sourcePoint" />
            <mxPoint x="441.22" y="521" as="targetPoint" />
          </mxGeometry>
        </mxCell>
        <mxCell id="osll9vNfczf3lXYmdbSo-56" style="rounded=0;orthogonalLoop=1;jettySize=auto;html=1;entryX=0.098;entryY=0.025;entryDx=0;entryDy=0;entryPerimeter=0;" edge="1" parent="1">
          <mxGeometry relative="1" as="geometry">
            <mxPoint x="579.9988235294118" y="330" as="sourcePoint" />
            <mxPoint x="581.22" y="521" as="targetPoint" />
          </mxGeometry>
        </mxCell>
        <mxCell id="osll9vNfczf3lXYmdbSo-57" style="rounded=0;orthogonalLoop=1;jettySize=auto;html=1;entryX=0.098;entryY=0.025;entryDx=0;entryDy=0;entryPerimeter=0;" edge="1" parent="1">
          <mxGeometry relative="1" as="geometry">
            <mxPoint x="709.9988235294118" y="329" as="sourcePoint" />
            <mxPoint x="711.22" y="520" as="targetPoint" />
          </mxGeometry>
        </mxCell>
        <mxCell id="osll9vNfczf3lXYmdbSo-58" style="rounded=0;orthogonalLoop=1;jettySize=auto;html=1;entryX=0.098;entryY=0.025;entryDx=0;entryDy=0;entryPerimeter=0;" edge="1" parent="1">
          <mxGeometry relative="1" as="geometry">
            <mxPoint x="839.9988235294118" y="330" as="sourcePoint" />
            <mxPoint x="841.22" y="521" as="targetPoint" />
          </mxGeometry>
        </mxCell>
        <mxCell id="osll9vNfczf3lXYmdbSo-59" style="rounded=0;orthogonalLoop=1;jettySize=auto;html=1;entryX=0.098;entryY=0.025;entryDx=0;entryDy=0;entryPerimeter=0;" edge="1" parent="1">
          <mxGeometry relative="1" as="geometry">
            <mxPoint x="969.9988235294118" y="330" as="sourcePoint" />
            <mxPoint x="971.22" y="521" as="targetPoint" />
          </mxGeometry>
        </mxCell>
        <mxCell id="osll9vNfczf3lXYmdbSo-60" style="rounded=0;orthogonalLoop=1;jettySize=auto;html=1;entryX=0.098;entryY=0.025;entryDx=0;entryDy=0;entryPerimeter=0;" edge="1" parent="1">
          <mxGeometry relative="1" as="geometry">
            <mxPoint x="1099.9988235294118" y="329" as="sourcePoint" />
            <mxPoint x="1101.22" y="520" as="targetPoint" />
          </mxGeometry>
        </mxCell>
        <mxCell id="osll9vNfczf3lXYmdbSo-61" value="" style="shape=cylinder3;whiteSpace=wrap;html=1;boundedLbl=1;backgroundOutline=1;size=15;rotation=-90;fillColor=#60a917;fontColor=#ffffff;strokeColor=#2D7600;" vertex="1" parent="1">
          <mxGeometry x="570" y="410" width="60" height="480" as="geometry" />
        </mxCell>
        <mxCell id="osll9vNfczf3lXYmdbSo-62" value="&lt;b&gt;&lt;font color=&quot;#ffffff&quot; style=&quot;font-size: 14px;&quot;&gt;SINGLE&amp;nbsp; DATABASE FOR ALL MODULES&lt;/font&gt;&lt;/b&gt;" style="text;html=1;align=center;verticalAlign=middle;whiteSpace=wrap;rounded=0;" vertex="1" parent="1">
          <mxGeometry x="475" y="635" width="250" height="30" as="geometry" />
        </mxCell>
        <mxCell id="osll9vNfczf3lXYmdbSo-63" style="edgeStyle=orthogonalEdgeStyle;rounded=0;orthogonalLoop=1;jettySize=auto;html=1;entryX=1;entryY=0.5;entryDx=0;entryDy=0;entryPerimeter=0;" edge="1" parent="1" source="osll9vNfczf3lXYmdbSo-40" target="osll9vNfczf3lXYmdbSo-61">
          <mxGeometry relative="1" as="geometry" />
        </mxCell>
        <mxCell id="osll9vNfczf3lXYmdbSo-64" value="MODULER MONOLITH ARCHITECTURE" style="text;strokeColor=none;fillColor=none;html=1;fontSize=24;fontStyle=1;verticalAlign=middle;align=center;" vertex="1" parent="1">
          <mxGeometry x="290" y="140" width="620" height="40" as="geometry" />
        </mxCell>
      </root>
    </mxGraphModel>
  </diagram>
</mxfile>
